<mxfile host="app.diagrams.net" modified="2022-10-30T15:06:52.640Z" agent="5.0 (Windows)" etag="AcILygBl13dZw3vvHQRF" version="20.5.1" type="github">
  <diagram id="UhUxbo7p0jCvoRmSpr77" name="Pagina-1">
    <mxGraphModel dx="721" dy="294" grid="1" gridSize="10" guides="1" tooltips="1" connect="1" arrows="1" fold="1" page="1" pageScale="1" pageWidth="1169" pageHeight="827" math="0" shadow="0">
      <root>
        <mxCell id="0" />
        <mxCell id="1" parent="0" />
        <mxCell id="ozQHrCLWgWk2S0I7QxG8-19" value="" style="group" vertex="1" connectable="0" parent="1">
          <mxGeometry x="435" y="205" width="149.5" height="115" as="geometry" />
        </mxCell>
        <mxCell id="ozQHrCLWgWk2S0I7QxG8-1" value="&lt;div&gt;&lt;p&gt;Circuito&lt;/p&gt;&lt;/div&gt;" style="rounded=0;whiteSpace=wrap;html=1;" vertex="1" parent="ozQHrCLWgWk2S0I7QxG8-19">
          <mxGeometry x="15" y="55" width="120" height="60" as="geometry" />
        </mxCell>
        <mxCell id="ozQHrCLWgWk2S0I7QxG8-7" value="" style="group" vertex="1" connectable="0" parent="ozQHrCLWgWk2S0I7QxG8-19">
          <mxGeometry width="40" height="55" as="geometry" />
        </mxCell>
        <mxCell id="ozQHrCLWgWk2S0I7QxG8-5" value="" style="verticalLabelPosition=bottom;align=center;dashed=0;html=1;verticalAlign=top;shape=mxgraph.pid.fittings.blind_disc2;" vertex="1" parent="ozQHrCLWgWk2S0I7QxG8-7">
          <mxGeometry x="15" y="25" width="10" height="30" as="geometry" />
        </mxCell>
        <mxCell id="ozQHrCLWgWk2S0I7QxG8-6" value="&lt;font style=&quot;font-size: 8px;&quot;&gt;nome&lt;/font&gt;" style="text;html=1;align=center;verticalAlign=middle;resizable=0;points=[];autosize=1;strokeColor=none;fillColor=none;" vertex="1" parent="ozQHrCLWgWk2S0I7QxG8-7">
          <mxGeometry width="40" height="30" as="geometry" />
        </mxCell>
        <mxCell id="ozQHrCLWgWk2S0I7QxG8-11" value="" style="group" vertex="1" connectable="0" parent="ozQHrCLWgWk2S0I7QxG8-19">
          <mxGeometry x="30" y="7" width="119.5" height="48" as="geometry" />
        </mxCell>
        <mxCell id="ozQHrCLWgWk2S0I7QxG8-4" value="" style="verticalLabelPosition=bottom;align=center;dashed=0;html=1;verticalAlign=top;shape=mxgraph.pid.fittings.open_disc;" vertex="1" parent="ozQHrCLWgWk2S0I7QxG8-11">
          <mxGeometry x="15" y="18" width="10" height="30" as="geometry" />
        </mxCell>
        <mxCell id="ozQHrCLWgWk2S0I7QxG8-8" value="alias" style="text;html=1;align=center;verticalAlign=middle;resizable=0;points=[];autosize=1;strokeColor=none;fillColor=none;fontSize=8;" vertex="1" parent="ozQHrCLWgWk2S0I7QxG8-11">
          <mxGeometry width="40" height="20" as="geometry" />
        </mxCell>
        <mxCell id="ozQHrCLWgWk2S0I7QxG8-12" value="" style="group" vertex="1" connectable="0" parent="ozQHrCLWgWk2S0I7QxG8-11">
          <mxGeometry x="29.5" width="90" height="48" as="geometry" />
        </mxCell>
        <mxCell id="ozQHrCLWgWk2S0I7QxG8-13" value="" style="verticalLabelPosition=bottom;align=center;dashed=0;html=1;verticalAlign=top;shape=mxgraph.pid.fittings.open_disc;" vertex="1" parent="ozQHrCLWgWk2S0I7QxG8-12">
          <mxGeometry x="15" y="18" width="10" height="30" as="geometry" />
        </mxCell>
        <mxCell id="ozQHrCLWgWk2S0I7QxG8-14" value="nazione" style="text;html=1;align=center;verticalAlign=middle;resizable=0;points=[];autosize=1;strokeColor=none;fillColor=none;fontSize=8;" vertex="1" parent="ozQHrCLWgWk2S0I7QxG8-12">
          <mxGeometry x="-5" width="50" height="20" as="geometry" />
        </mxCell>
        <mxCell id="ozQHrCLWgWk2S0I7QxG8-15" value="" style="group" vertex="1" connectable="0" parent="ozQHrCLWgWk2S0I7QxG8-12">
          <mxGeometry x="35" width="50" height="48" as="geometry" />
        </mxCell>
        <mxCell id="ozQHrCLWgWk2S0I7QxG8-16" value="" style="verticalLabelPosition=bottom;align=center;dashed=0;html=1;verticalAlign=top;shape=mxgraph.pid.fittings.open_disc;" vertex="1" parent="ozQHrCLWgWk2S0I7QxG8-15">
          <mxGeometry x="15" y="18" width="10" height="30" as="geometry" />
        </mxCell>
        <mxCell id="ozQHrCLWgWk2S0I7QxG8-17" value="lunghezza" style="text;html=1;align=center;verticalAlign=middle;resizable=0;points=[];autosize=1;strokeColor=none;fillColor=none;fontSize=8;" vertex="1" parent="ozQHrCLWgWk2S0I7QxG8-15">
          <mxGeometry x="-10" width="60" height="20" as="geometry" />
        </mxCell>
        <mxCell id="ozQHrCLWgWk2S0I7QxG8-35" value="" style="group" vertex="1" connectable="0" parent="1">
          <mxGeometry x="760" y="205" width="145" height="115" as="geometry" />
        </mxCell>
        <mxCell id="ozQHrCLWgWk2S0I7QxG8-27" value="" style="group" vertex="1" connectable="0" parent="ozQHrCLWgWk2S0I7QxG8-35">
          <mxGeometry width="120" height="115" as="geometry" />
        </mxCell>
        <mxCell id="ozQHrCLWgWk2S0I7QxG8-20" value="&lt;p&gt;&lt;font style=&quot;font-size: 12px;&quot;&gt;squadra&lt;/font&gt;&lt;/p&gt;" style="rounded=0;whiteSpace=wrap;html=1;fontSize=8;" vertex="1" parent="ozQHrCLWgWk2S0I7QxG8-27">
          <mxGeometry y="55" width="120" height="60" as="geometry" />
        </mxCell>
        <mxCell id="ozQHrCLWgWk2S0I7QxG8-21" value="" style="group" vertex="1" connectable="0" parent="ozQHrCLWgWk2S0I7QxG8-27">
          <mxGeometry width="40" height="55" as="geometry" />
        </mxCell>
        <mxCell id="ozQHrCLWgWk2S0I7QxG8-22" value="" style="verticalLabelPosition=bottom;align=center;dashed=0;html=1;verticalAlign=top;shape=mxgraph.pid.fittings.blind_disc2;" vertex="1" parent="ozQHrCLWgWk2S0I7QxG8-21">
          <mxGeometry x="15" y="25" width="10" height="30" as="geometry" />
        </mxCell>
        <mxCell id="ozQHrCLWgWk2S0I7QxG8-23" value="&lt;font style=&quot;font-size: 8px;&quot;&gt;nome&lt;/font&gt;" style="text;html=1;align=center;verticalAlign=middle;resizable=0;points=[];autosize=1;strokeColor=none;fillColor=none;" vertex="1" parent="ozQHrCLWgWk2S0I7QxG8-21">
          <mxGeometry width="40" height="30" as="geometry" />
        </mxCell>
        <mxCell id="ozQHrCLWgWk2S0I7QxG8-26" value="" style="group" vertex="1" connectable="0" parent="ozQHrCLWgWk2S0I7QxG8-27">
          <mxGeometry x="30" width="50" height="55" as="geometry" />
        </mxCell>
        <mxCell id="ozQHrCLWgWk2S0I7QxG8-24" value="" style="verticalLabelPosition=bottom;align=center;dashed=0;html=1;verticalAlign=top;shape=mxgraph.pid.fittings.open_disc;fontSize=12;" vertex="1" parent="ozQHrCLWgWk2S0I7QxG8-26">
          <mxGeometry x="20" y="25" width="10" height="30" as="geometry" />
        </mxCell>
        <mxCell id="ozQHrCLWgWk2S0I7QxG8-25" value="&lt;font style=&quot;font-size: 8px;&quot;&gt;nazione&lt;/font&gt;" style="text;html=1;align=center;verticalAlign=middle;resizable=0;points=[];autosize=1;strokeColor=none;fillColor=none;fontSize=12;" vertex="1" parent="ozQHrCLWgWk2S0I7QxG8-26">
          <mxGeometry width="50" height="30" as="geometry" />
        </mxCell>
        <mxCell id="ozQHrCLWgWk2S0I7QxG8-31" value="" style="group" vertex="1" connectable="0" parent="ozQHrCLWgWk2S0I7QxG8-35">
          <mxGeometry x="70" width="75" height="55" as="geometry" />
        </mxCell>
        <mxCell id="ozQHrCLWgWk2S0I7QxG8-34" value="" style="group" vertex="1" connectable="0" parent="ozQHrCLWgWk2S0I7QxG8-31">
          <mxGeometry x="-5" y="-9" width="60" height="64" as="geometry" />
        </mxCell>
        <mxCell id="ozQHrCLWgWk2S0I7QxG8-32" value="" style="verticalLabelPosition=bottom;align=center;dashed=0;html=1;verticalAlign=top;shape=mxgraph.pid.fittings.open_disc;fontSize=12;" vertex="1" parent="ozQHrCLWgWk2S0I7QxG8-34">
          <mxGeometry x="25" y="34" width="10" height="30" as="geometry" />
        </mxCell>
        <mxCell id="ozQHrCLWgWk2S0I7QxG8-33" value="&lt;div&gt;&lt;font style=&quot;font-size: 8px;&quot;&gt;nome&lt;/font&gt;&lt;/div&gt;&lt;div&gt;&lt;font style=&quot;font-size: 8px;&quot;&gt;precedente&lt;/font&gt;&lt;br&gt;&lt;/div&gt;" style="text;html=1;align=center;verticalAlign=middle;resizable=0;points=[];autosize=1;strokeColor=none;fillColor=none;fontSize=12;" vertex="1" parent="ozQHrCLWgWk2S0I7QxG8-34">
          <mxGeometry width="60" height="40" as="geometry" />
        </mxCell>
        <mxCell id="ozQHrCLWgWk2S0I7QxG8-36" value="" style="group" vertex="1" connectable="0" parent="1">
          <mxGeometry x="950" y="205" width="145" height="115" as="geometry" />
        </mxCell>
        <mxCell id="ozQHrCLWgWk2S0I7QxG8-37" value="" style="group" vertex="1" connectable="0" parent="ozQHrCLWgWk2S0I7QxG8-36">
          <mxGeometry width="120" height="115" as="geometry" />
        </mxCell>
        <mxCell id="ozQHrCLWgWk2S0I7QxG8-38" value="&lt;p&gt;Pilota&lt;br&gt;&lt;/p&gt;" style="rounded=0;whiteSpace=wrap;html=1;fontSize=8;" vertex="1" parent="ozQHrCLWgWk2S0I7QxG8-37">
          <mxGeometry y="55" width="120" height="60" as="geometry" />
        </mxCell>
        <mxCell id="ozQHrCLWgWk2S0I7QxG8-39" value="" style="group" vertex="1" connectable="0" parent="ozQHrCLWgWk2S0I7QxG8-37">
          <mxGeometry width="40" height="55" as="geometry" />
        </mxCell>
        <mxCell id="ozQHrCLWgWk2S0I7QxG8-40" value="" style="verticalLabelPosition=bottom;align=center;dashed=0;html=1;verticalAlign=top;shape=mxgraph.pid.fittings.blind_disc2;" vertex="1" parent="ozQHrCLWgWk2S0I7QxG8-39">
          <mxGeometry x="15" y="25" width="10" height="30" as="geometry" />
        </mxCell>
        <mxCell id="ozQHrCLWgWk2S0I7QxG8-41" value="&lt;font style=&quot;font-size: 8px;&quot;&gt;nome&lt;/font&gt;" style="text;html=1;align=center;verticalAlign=middle;resizable=0;points=[];autosize=1;strokeColor=none;fillColor=none;" vertex="1" parent="ozQHrCLWgWk2S0I7QxG8-39">
          <mxGeometry width="40" height="30" as="geometry" />
        </mxCell>
        <mxCell id="ozQHrCLWgWk2S0I7QxG8-42" value="" style="group" vertex="1" connectable="0" parent="ozQHrCLWgWk2S0I7QxG8-37">
          <mxGeometry x="30" width="55" height="55" as="geometry" />
        </mxCell>
        <mxCell id="ozQHrCLWgWk2S0I7QxG8-43" value="" style="verticalLabelPosition=bottom;align=center;dashed=0;html=1;verticalAlign=top;shape=mxgraph.pid.fittings.open_disc;fontSize=12;" vertex="1" parent="ozQHrCLWgWk2S0I7QxG8-42">
          <mxGeometry x="20" y="25" width="10" height="30" as="geometry" />
        </mxCell>
        <mxCell id="ozQHrCLWgWk2S0I7QxG8-44" value="&lt;font style=&quot;font-size: 8px;&quot;&gt;cognome&lt;/font&gt;" style="text;html=1;align=center;verticalAlign=middle;resizable=0;points=[];autosize=1;strokeColor=none;fillColor=none;fontSize=12;" vertex="1" parent="ozQHrCLWgWk2S0I7QxG8-42">
          <mxGeometry x="-5" width="60" height="30" as="geometry" />
        </mxCell>
        <mxCell id="ozQHrCLWgWk2S0I7QxG8-45" value="" style="group" vertex="1" connectable="0" parent="ozQHrCLWgWk2S0I7QxG8-36">
          <mxGeometry x="70" width="75" height="55" as="geometry" />
        </mxCell>
        <mxCell id="ozQHrCLWgWk2S0I7QxG8-46" value="" style="group" vertex="1" connectable="0" parent="ozQHrCLWgWk2S0I7QxG8-45">
          <mxGeometry x="-5" y="-9" width="60" height="64" as="geometry" />
        </mxCell>
        <mxCell id="ozQHrCLWgWk2S0I7QxG8-47" value="" style="verticalLabelPosition=bottom;align=center;dashed=0;html=1;verticalAlign=top;shape=mxgraph.pid.fittings.open_disc;fontSize=12;" vertex="1" parent="ozQHrCLWgWk2S0I7QxG8-46">
          <mxGeometry x="25" y="34" width="10" height="30" as="geometry" />
        </mxCell>
        <mxCell id="ozQHrCLWgWk2S0I7QxG8-48" value="&lt;div&gt;&lt;font style=&quot;font-size: 8px;&quot;&gt;nome&lt;/font&gt;&lt;/div&gt;&lt;div&gt;&lt;font style=&quot;font-size: 8px;&quot;&gt;precedente&lt;/font&gt;&lt;br&gt;&lt;/div&gt;" style="text;html=1;align=center;verticalAlign=middle;resizable=0;points=[];autosize=1;strokeColor=none;fillColor=none;fontSize=12;" vertex="1" parent="ozQHrCLWgWk2S0I7QxG8-46">
          <mxGeometry width="60" height="40" as="geometry" />
        </mxCell>
      </root>
    </mxGraphModel>
  </diagram>
</mxfile>
